# xmcd
#
# Track frame offsets:
#	150
#	25662
#	43827
#	62017
#	86457
#	106430
#	126067
#	144730
#	158710
#	175307
#	195310
#	215290
#	231915
#
# Disc length: 3285 seconds
# Revision: 4
# Processed by: cddbd v1.5.2PL0 Copyright (c) Steve Scherf et al.
# Submitted via: dBpowerAMP V12.0
#
DISCID=ac0cd30d
DTITLE=Michael Osborn - A Background in the Blues
DYEAR=1996
DGENRE=Blues
TTITLE0=Midnight Crawl
TTITLE1=Miss Goody Two Shoes
TTITLE2=I Wouldn't Have You
TTITLE3=Shake It Down
TTITLE4=Little Miss Blues
TTITLE5=Delta Soul Time
TTITLE6=I've Been Daydreamin'
TTITLE7=Smokin'
TTITLE8=Mabel
TTITLE9=Slow Squeeze
TTITLE10=Doctor Please
TTITLE11=Puppy Dog Blues
TTITLE12=The Kaley Shuffle
EXTD=
EXTT0=
EXTT1=
EXTT2=
EXTT3=
EXTT4=
EXTT5=
EXTT6=
EXTT7=
EXTT8=
EXTT9=
EXTT10=
EXTT11=
EXTT12=
PLAYORDER=
